<svg width="69" height="72" xmlns="http://www.w3.org/2000/svg" xmlns:xlink="http://www.w3.org/1999/xlink" overflow="hidden"><defs><clipPath id="clip0"><rect x="0" y="0" width="69" height="72"/></clipPath></defs><g clip-path="url(#clip0)"><path d="M47.9488 48.4181C48.9347 49.3761 48.9574 50.952 47.9994 51.938 47.9827 51.955 47.9658 51.9719 47.9488 51.9886L43.6743 53.3965 42.9205 52.6426 44.3284 48.3682C45.3492 47.4007 46.955 47.4228 47.9488 48.4181ZM67.2635 22.6164 42.5729 47.3621 39.3999 56.9171 49.0047 53.7484 73.7005 29.0578Z" transform="matrix(1 0 0 1.00347 -11.4615 -6.2103)"/><path d="M79.0782 20.8093 75.5077 17.2388C74.734 16.4472 73.4652 16.4326 72.6736 17.2063 72.6626 17.217 72.6518 17.2278 72.6411 17.2388L69.1205 20.7594 75.5077 27.1421 79.0274 23.6224C79.8171 22.9277 79.8939 21.7244 79.1993 20.9348 79.1608 20.8911 79.1205 20.8492 79.0782 20.8093Z" transform="matrix(1 0 0 1.00347 -11.4615 -6.2103)"/><path d="M22.7644 56.9109 36.6349 56.9109 37.7959 53.4087 22.7644 53.4087 22.7644 56.9109Z" transform="matrix(1 0 0 1.00347 -11.4615 -6.2103)"/><path d="M22.7644 35.8977 50.2988 35.8977 53.794 32.3955 22.7644 32.3955 22.7644 35.8977Z" transform="matrix(1 0 0 1.00347 -11.4615 -6.2103)"/><path d="M61.2887 45.1785 61.2887 71.7953 17.5111 71.7953 17.5111 17.5111 27.1421 17.5111 27.1421 22.7644 51.6576 22.7644 51.6576 17.5111 61.2887 17.5111 61.2887 24.885 65.4038 20.7594 65.4038 20.7594 65.5535 20.6096 66.542 19.6211 66.542 15.7599C66.542 13.8258 64.974 12.2577 63.0398 12.2577L48.1554 12.2577 48.1554 10.5066C48.1554 8.57241 46.5874 7.00442 44.6532 7.00442L34.1466 7.00442C32.2124 7.00442 30.6443 8.57241 30.6443 10.5066L30.6443 12.2577 15.7599 12.2577C13.8258 12.2577 12.2577 13.8258 12.2577 15.7599L12.2577 73.5464C12.2577 75.4806 13.8258 77.0486 15.7599 77.0486L63.0398 77.0486C64.974 77.0486 66.542 75.4806 66.542 73.5464L66.542 39.9252ZM37.5297 11.2631C38.0245 10.7675 38.6996 10.4944 39.3999 10.5066 40.8506 10.5066 42.0265 11.6826 42.0265 13.1333 42.0265 14.584 40.8506 15.7599 39.3999 15.7599 37.9492 15.7599 36.7732 14.584 36.7732 13.1333 36.761 12.433 37.034 11.7579 37.5297 11.2631Z" transform="matrix(1 0 0 1.00347 -11.4615 -6.2103)"/><path d="M22.7644 46.4043 39.7921 46.4043 43.2873 42.9021 22.7644 42.9021 22.7644 46.4043Z" transform="matrix(1 0 0 1.00347 -11.4615 -6.2103)"/></g></svg>